<svg width="24" height="24" viewBox="0 0 24 24" fill="none" xmlns="http://www.w3.org/2000/svg">
<path d="M18 17C18 17.93 18 18.395 17.8978 18.7765C17.6204 19.8117 16.8117 20.6204 15.7765 20.8978C15.395 21 14.93 21 14 21H7.8C6.11984 21 5.27976 21 4.63803 20.673C4.07354 20.3854 3.6146 19.9265 3.32698 19.362C3 18.7202 3 17.8802 3 16.2V7.8C3 6.11984 3 5.27976 3.32698 4.63803C3.6146 4.07354 4.07354 3.6146 4.63803 3.32698C5.27977 3 6.11984 3 7.8 3H14C14.93 3 15.395 3 15.7765 3.10222C16.8117 3.37962 17.6204 4.18827 17.8978 5.22354C18 5.60504 18 6.07003 18 7M12 8L8 12M8 12L12 16M8 12H21" stroke="#F2F4F7" stroke-width="1.5" stroke-linecap="round" stroke-linejoin="round"/>
</svg>
